[IMG]http://i.imgur.com/Feb9E.jpg[/IMG]
[code]
Safe House 2012 TS READNFO XviD AC3-26K
Imdb: 
http://www.imdb.com/title/tt1599348/

Plot:
A young CIA agent is tasked with looking after a fugitive in a safe house. But 

when the safe house is attacked, he finds himself on the run with his charge.

Sources:
V: LUM1X
A: LittlebirD

Notes:
Video is good, there is some blank bits in the video !! around for 3 - 4 

minutes...
audio is very good thnxs to littlebird !!
added a few filters to the video to make it look nice :P
take it or leave it

Greetz:
Xtreme 

Encode|FYA|ILLUMANTI|CM8|RX|VISION|HDSCENE|NIGHTMAREZ|xTriLL|DTRG|CRYS|REMIXHD|BID

A|RX|REFILL|INSPiRAL|SIC|ZOMBIESZ|HOPE|Anonymous|GooN
To all the people who have helped me :P you know who you are

Anything to offer email us @: 26k@hushmail.me
Video
ID                                       : 0
Format                                   : MPEG-4 Visual
Format profile                           : Advanced Simple@L5
Format settings, BVOP                    : 2
Format settings, QPel                    : No
Format settings, GMC                     : No warppoints
Format settings, Matrix                  : Default (H.263)
Codec ID                                 : XVID
Codec ID/Hint                            : XviD
Duration                                 : 1h 44mn
Bit rate                                 : 1 690 Kbps
Width                                    : 720 pixels
Height                                   : 272 pixels
Display aspect ratio                     : 2.647
Frame rate                               : 25.000 fps
Color space                              : YUV
Chroma subsampling                       : 4:2:0
Bit depth                                : 8 bits
Scan type                                : Progressive
Compression mode                         : Lossy
Bits/(Pixel*Frame)                       : 0.345
Stream size                              : 1.24 GiB (88%)
Writing library                          : XviD 64

Audio
ID                                       : 1
Format                                   : AC-3
Format/Info                              : Audio Coding 3
Mode extension                           : CM (complete main)
Codec ID                                 : 2000
Duration                                 : 1h 44mn
Source duration                          : 1h 44mn
Bit rate mode                            : Constant
Bit rate                                 : 224 Kbps
Channel(s)                               : 2 channels
Channel positions                        : Front: L R
Sampling rate                            : 44.1 KHz
Bit depth                                : 16 bits
Compression mode                         : Lossy
Stream size                              : 168 MiB (12%)
Alignment                                : Aligned on interleaves
Interleave, duration                     : 35 ms (0.87 video frame)

[/code]
Screens:
[IMG]http://i.imgur.com/Osdrs.png[/IMG]
[IMG]http://i.imgur.com/rycdp.png[/IMG]
[IMG]http://i.imgur.com/TTC9Z.png[/IMG]
[IMG]http://i.imgur.com/Cb4lW.png[/IMG]
[IMG]http://i.imgur.com/u7N2A.png[/IMG]
[IMG]http://i.imgur.com/UjxU5.png[/IMG]
[IMG]http://i.imgur.com/xZGkS.png[/IMG]
[IMG]http://i.imgur.com/Mplno.png[/IMG]

[img]http://img851.imageshack.us/img851/5503/26ks.jpg[/img]
Thank you smallz for banner!